<svg xmlns="http://www.w3.org/2000/svg" id="Layer_1" enable-background="new 0 0 511.958 511.958" viewBox="0 0 511.958 511.958">
        <g><path d="m316.578 60.456c-27.433 14.218-55.565 31.604-82.845 52.836v315.252c26.304-18.54 54.357-40.276 82.845-65.438z"/><path d="m348.838 44.967v288.273c3.297-3.2 6.594-6.431 9.887-9.724 114.987-114.987 145.977-264.387 153.1-310.849 1.125-7.337-5.193-13.661-12.53-12.536-25.972 3.981-84.128 15.424-150.457 44.836z"/><path d="m201.473 450.325v-309.64c-4.387 4.067-8.734 8.248-13.032 12.546-113.243 113.244-170.768 229.873-187.716 267.951-2.56 5.752 2.025 12.127 8.291 11.518l77.81-7.569-7.569 77.808c-.609 6.257 5.755 10.856 11.498 8.299 19.677-8.759 60.361-28.368 110.718-60.913z"/></g></svg>
